<svg width="48" height="48" viewBox="0 0 48 48" fill="none" xmlns="http://www.w3.org/2000/svg">
<path d="M24 6 L44 36 A6 6 0 0 1 38 42 L10 42 A6 6 0 0 1 4 36 Z" fill="white"/>
<path d="M22.501 32.5392C22.501 31.7112 23.173 31.0272 24.001 31.0272C24.829 31.0272 25.501 31.6892 25.501 32.5172V32.5392C25.501 33.3672 24.829 34.0392 24.001 34.0392C23.173 34.0392 22.501 33.3672 22.501 32.5392Z" fill="black"/>
<path d="M9.59168 40.8358H38.5557C40.8497 40.7158 42.6137 38.7618 42.4957 36.4678C42.4697 36.0038 42.3697 35.5458 42.1937 35.1178L27.6397 9.6458C26.5277 7.6358 23.9977 6.9078 21.9877 8.0218C21.3037 8.3978 20.7397 8.9618 20.3617 9.6458L5.80768 35.1178C4.94368 37.2458 5.96768 39.6698 8.09368 40.5358C8.52568 40.7098 8.98168 40.8098 9.44568 40.8358" stroke="currentColor" stroke-width="3" stroke-linecap="round" stroke-linejoin="round"/>
<path d="M23.9805 26.7922V20.5922" stroke="black" stroke-width="3" stroke-linecap="round" stroke-linejoin="round"/>
</svg>
